<svg xmlns="http://www.w3.org/2000/svg"  viewBox="0 0 64 64" width="64px" height="64px"><linearGradient id="1GezJIQOsm7ZssCEYxQDma" x1="32" x2="32" y1="9.167" y2="54.686" gradientUnits="userSpaceOnUse" spreadMethod="reflect"><stop offset="0" stop-color="#1a6dff"/><stop offset="1" stop-color="#c822ff"/></linearGradient><path fill="url(#1GezJIQOsm7ZssCEYxQDma)" d="M58,33v-1c0-4.794-4.206-9-9-9c-4.275,0-7.855,2.998-8.768,7H32v-8h6h1h1c1.103,0,2-0.897,2-2 v-8c0-1.103-0.897-2-2-2h-1h-1H23c-6.065,0-11,4.935-11,11v1h10v8H9c-1.654,0-3,1.346-3,3v4c0,1.654,1.346,3,3,3h13v11 c0,1.654,1.346,3,3,3h4c1.654,0,3-1.346,3-3V40h8.232c0.913,4.002,4.494,7,8.768,7c4.794,0,9-4.206,9-9v-1l-8-0.031L50.031,33H58z M39,12h1v8h-1h-1v-8H39z M23,12h13v8H14.056C14.555,15.506,18.375,12,23,12z M30,22v2h-6v-2H30z M9,38c-0.552,0-1-0.449-1-1v-4 c0-0.551,0.448-1,1-1h13v2h-8v2h8v2H9z M29,52h-4c-0.552,0-1-0.449-1-1V26h2v10h2V26h2v25C30,51.551,29.552,52,29,52z M50.031,39 h5.881c-0.521,3.007-3.307,6-6.912,6c-3.859,0-7-3.14-7-7h-2h-8v-2h8v-2h-8v-2h8h1h1c0-3.86,3.141-7,7-7 c3.605,0,6.391,2.993,6.912,6h-5.881C48.911,31,48,31.911,48,33.031v3.938C48,38.089,48.911,39,50.031,39z"/><linearGradient id="1GezJIQOsm7ZssCEYxQDmb" x1="39" x2="39" y1="11.5" y2="20.896" gradientUnits="userSpaceOnUse" spreadMethod="reflect"><stop offset="0" stop-color="#6dc7ff"/><stop offset="1" stop-color="#e6abff"/></linearGradient><path fill="url(#1GezJIQOsm7ZssCEYxQDmb)" d="M38 12H40V20H38z"/></svg>